<?xml version="1.0" encoding="utf-8"?>
<!-- Generator: Adobe Illustrator 18.1.0, SVG Export Plug-In . SVG Version: 6.00 Build 0)  -->
<svg version="1.1" id="Capa_1" xmlns="http://www.w3.org/2000/svg" xmlns:xlink="http://www.w3.org/1999/xlink" x="0px" y="0px"
	 viewBox="69.8 892.8 1044.1 307.2" enable-background="new 69.8 892.8 1044.1 307.2" xml:space="preserve">
<g>
	<rect x="154.6" y="953.1" width="79.3" height="16.8"/>
	<path d="M340.9,972c2.8,0,5.5-1.1,7.4-3.1c2-2,3.1-4.7,3.1-7.4c0-2.7-1.1-5.5-3.1-7.4c-2-2-4.7-3-7.4-3c-2.8,0-5.5,1.1-7.4,3
		c-2,2-3,4.7-3,7.4c0,2.7,1.1,5.5,3,7.4C335.4,970.8,338.1,972,340.9,972z"/>
	<path d="M303.1,972c2.8,0,5.5-1.1,7.4-3.1c2-2,3.1-4.7,3.1-7.4c0-2.7-1.1-5.5-3.1-7.4c-2-2-4.7-3-7.4-3c-2.7,0-5.5,1.1-7.4,3
		c-2,2-3,4.7-3,7.4c0,2.7,1.1,5.5,3,7.4C297.6,970.8,300.3,972,303.1,972z"/>
	<path d="M265.4,972c2.8,0,5.5-1.1,7.4-3.1c2-2,3.1-4.7,3.1-7.4c0-2.7-1.1-5.5-3.1-7.4c-2-2-4.7-3-7.4-3c-2.8,0-5.4,1.1-7.4,3
		c-2,2-3,4.7-3,7.4c0,2.7,1.1,5.5,3,7.4C260,970.8,262.7,972,265.4,972z"/>
	<path d="M100.6,918.4v221.5h69.2v53.5l100.3-53.5h128.2V918.4H100.6z M377.4,1118.9H264.8l0,0l-74.1,39.4v-39.4h-69.2v-114.4h255.8
		v114.4H377.4z M377.4,983.5H121.5v-44.1h255.8v44.1H377.4z"/>
	<polygon points="222.1,1085.8 197.4,1065.3 222.1,1045.1 214.3,1037.2 180.9,1065.5 214.3,1093.7 	"/>
	<polygon points="271.6,1022.3 259.7,1022.3 225.1,1103.2 236.8,1103.2 	"/>
	<polygon points="284.7,1093.7 318.2,1065.5 284.7,1037.2 277,1045.1 301.6,1065.5 277,1085.8 	"/>
</g>
<g enable-background="new    ">
	<path d="M481.2,927.3h10.6v81.7h-10.6v-38h-26.9v38h-10.6v-81.7h10.6v34.6h26.9V927.3z"/>
	<path d="M511.8,948.4c2-0.9,4.2-1.6,6.5-2.1c2.3-0.5,4.8-0.8,7.4-0.8c5.5,0,10,1.7,13.4,5.1c3.5,3.4,5.2,8.7,5.2,16v41
		c-2.8,0.8-5.7,1.4-8.7,1.9c-2.9,0.5-5.8,0.7-8.7,0.7s-5.5-0.4-8-1.1c-2.5-0.7-4.6-1.8-6.5-3.4c-1.8-1.6-3.3-3.6-4.4-6
		c-1.1-2.4-1.7-5.3-1.7-8.8c0-3.2,0.5-6,1.5-8.4c1-2.4,2.3-4.4,4.1-6c1.7-1.6,3.8-2.8,6.1-3.7c2.4-0.8,4.9-1.2,7.7-1.2
		c2.6,0,5.5,0.3,8.6,0.9V967c0-4.6-0.9-7.7-2.7-9.6c-1.8-1.8-4.3-2.7-7.6-2.7c-1.8,0-3.5,0.2-5.1,0.5c-1.6,0.4-3.3,0.9-5.1,1.7
		L511.8,948.4z M516.7,991c0,3.6,0.9,6.3,2.8,8c1.9,1.7,4.6,2.6,8,2.6c2.1,0,4.4-0.3,7-0.8v-19.7c-2.4-0.6-4.7-0.9-7-0.9
		c-1.5,0-2.9,0.2-4.2,0.5c-1.3,0.4-2.5,0.9-3.5,1.8c-1,0.8-1.8,1.9-2.3,3.3C516.9,987.1,516.7,988.9,516.7,991z"/>
	<path d="M580.9,1010.6c-4.2,0-7.8-0.8-10.6-2.5s-5.1-3.9-6.9-6.8c-1.8-2.9-3-6.3-3.8-10.2c-0.7-3.9-1.1-8.2-1.1-12.9
		c0-10.2,1.9-18.2,5.6-24c3.7-5.8,9.4-8.7,16.9-8.7c2.3,0,4.3,0.3,6.1,0.8c1.8,0.6,3.5,1.3,5.1,2.1l-2.6,8.4
		c-2.4-1.6-5.2-2.4-8.1-2.4c-4.2,0-7.4,1.9-9.4,5.8c-2,3.9-3,9.8-3,17.9c0,3.4,0.2,6.5,0.6,9.4c0.4,2.9,1.1,5.3,2.1,7.4
		c1,2,2.3,3.7,3.9,4.8c1.6,1.2,3.7,1.8,6.2,1.8c1.7,0,3.3-0.2,4.7-0.6c1.4-0.4,2.7-1,4-1.7l2.2,7.9c-1.3,0.9-2.9,1.7-5,2.4
		C585.6,1010.2,583.4,1010.6,580.9,1010.6z"/>
	<path d="M642.1,947.1c-3.3,5.7-6.5,10.8-9.5,15.5c-3,4.7-6,9.1-9,13.1c1.9,2.2,3.8,4.7,5.8,7.4c2,2.8,3.9,5.6,5.7,8.6
		c1.8,3,3.5,5.9,5.1,8.9c1.6,3,2.9,5.8,4,8.4H633c-1.2-2.6-2.6-5.3-4.1-8.2c-1.6-2.8-3.2-5.6-5-8.3s-3.5-5.3-5.2-7.7
		c-1.7-2.4-3.3-4.5-4.8-6.1v30.4h-10.1v-89.8l10.1-1.8v56.2c1.4-1.9,2.9-4,4.5-6.4s3.2-4.7,4.7-7.1c1.6-2.4,3-4.7,4.4-7
		c1.4-2.3,2.6-4.3,3.5-6.1H642.1z"/>
	<path d="M655,948.4c2-0.9,4.2-1.6,6.5-2.1c2.3-0.5,4.8-0.8,7.4-0.8c5.5,0,10,1.7,13.4,5.1c3.5,3.4,5.2,8.7,5.2,16v41
		c-2.8,0.8-5.7,1.4-8.7,1.9c-2.9,0.5-5.8,0.7-8.7,0.7s-5.5-0.4-8-1.1c-2.5-0.7-4.6-1.8-6.5-3.4c-1.8-1.6-3.3-3.6-4.4-6
		c-1.1-2.4-1.7-5.3-1.7-8.8c0-3.2,0.5-6,1.5-8.4c1-2.4,2.3-4.4,4.1-6c1.7-1.6,3.8-2.8,6.1-3.7c2.4-0.8,4.9-1.2,7.7-1.2
		c2.6,0,5.5,0.3,8.6,0.9V967c0-4.6-0.9-7.7-2.7-9.6c-1.8-1.8-4.3-2.7-7.6-2.7c-1.8,0-3.5,0.2-5.1,0.5c-1.6,0.4-3.3,0.9-5.1,1.7
		L655,948.4z M659.9,991c0,3.6,0.9,6.3,2.8,8c1.9,1.7,4.6,2.6,8,2.6c2.1,0,4.4-0.3,7-0.8v-19.7c-2.4-0.6-4.7-0.9-7-0.9
		c-1.5,0-2.9,0.2-4.2,0.5c-1.3,0.4-2.5,0.9-3.5,1.8c-1,0.8-1.8,1.9-2.3,3.3C660.1,987.1,659.9,988.9,659.9,991z"/>
	<path d="M714.7,947.1h15.6v8.7h-15.6v34.1c0,4.2,0.8,7.2,2.3,8.9c1.5,1.7,3.6,2.5,6.2,2.5c1.3,0,2.6-0.2,3.8-0.6
		c1.2-0.4,2.3-0.9,3.1-1.4l2,8.1c-3.2,1.9-6.6,2.8-10.3,2.8c-5.8,0-10.2-1.6-13-4.9c-2.9-3.3-4.3-8.7-4.3-16.2v-58.7l10.1-1.8V947.1
		z"/>
	<path d="M743.1,1009v-89.8l10.1-1.8v30c1.5-0.5,3.1-0.9,4.9-1.2c1.8-0.3,3.6-0.5,5.4-0.5c2.6,0,5,0.4,7.3,1.2
		c2.3,0.8,4.3,2.2,6,4.2c1.7,2,3,4.6,4,8c1,3.3,1.5,7.5,1.5,12.4v37.4h-10.1v-36.6c0-6.1-0.8-10.6-2.4-13.4
		c-1.6-2.8-4.5-4.2-8.8-4.2c-2.3,0-4.8,0.4-7.7,1.2v53.1H743.1z"/>
	<path d="M839.7,978.1c0,4.9-0.4,9.3-1.3,13.3c-0.9,4-2.2,7.4-4,10.2s-4,5-6.7,6.6c-2.7,1.6-5.9,2.4-9.6,2.4c-3.7,0-6.9-0.8-9.7-2.4
		c-2.8-1.6-5-3.8-6.8-6.6s-3.1-6.2-4-10.2c-0.9-4-1.3-8.4-1.3-13.3c0-4.8,0.4-9.2,1.3-13.2c0.9-4,2.2-7.5,4-10.3
		c1.8-2.9,4-5.1,6.8-6.7c2.8-1.6,6-2.4,9.7-2.4c3.7,0,6.9,0.8,9.6,2.4c2.7,1.6,5,3.8,6.7,6.7c1.8,2.9,3.1,6.3,4,10.3
		C839.3,968.9,839.7,973.3,839.7,978.1z M829.1,978.1c0-3.5-0.2-6.6-0.6-9.5c-0.4-2.9-1-5.3-1.9-7.4c-0.9-2.1-2-3.7-3.4-4.8
		c-1.4-1.1-3.1-1.7-5.1-1.7c-2,0-3.8,0.6-5.1,1.7c-1.4,1.1-2.5,2.8-3.4,4.8c-0.9,2.1-1.6,4.6-1.9,7.4c-0.4,2.9-0.6,6-0.6,9.5
		c0,3.5,0.2,6.6,0.6,9.5c0.4,2.9,1,5.3,1.9,7.4c0.9,2,2,3.6,3.4,4.8c1.4,1.1,3.1,1.7,5.1,1.7c2,0,3.7-0.6,5.1-1.7
		c1.4-1.1,2.6-2.7,3.4-4.8c0.9-2,1.5-4.5,1.9-7.4C828.9,984.7,829.1,981.6,829.1,978.1z"/>
	<path d="M854.6,948.9c2.9-0.9,6.1-1.6,9.4-2.2c3.4-0.6,6.5-0.9,9.3-0.9c3.1,0,5.9,0.4,8.4,1.2c2.5,0.8,4.7,2.2,6.4,4.2
		c1.8,2,3.1,4.6,4.1,8c1,3.3,1.5,7.5,1.5,12.4v37.4h-10.1v-36.6c0-6.1-0.8-10.6-2.4-13.4c-1.6-2.8-4.5-4.2-8.8-4.2
		c-2.3,0-4.8,0.4-7.7,1.2v53.1h-10.1V948.9z"/>
</g>
<g enable-background="new    ">
	<path d="M498.5,1084.8c0,6.4-0.6,12.2-1.7,17.4c-1.1,5.2-2.9,9.7-5.3,13.4c-2.4,3.7-5.4,6.6-9.1,8.7s-8,3.1-12.9,3.1
		s-9.3-1-12.9-3.1s-6.7-4.9-9.1-8.7c-2.4-3.7-4.2-8.2-5.4-13.4c-1.2-5.2-1.8-11-1.8-17.4s0.6-12.2,1.8-17.5c1.2-5.3,3-9.8,5.4-13.5
		c2.4-3.7,5.4-6.6,9.1-8.7c3.7-2.1,8-3.1,12.9-3.1s9.3,1,12.9,3.1c3.7,2.1,6.7,5,9.1,8.7c2.4,3.7,4.2,8.2,5.3,13.5
		C497.9,1072.6,498.5,1078.4,498.5,1084.8z M487.2,1084.8c0-5-0.3-9.5-0.9-13.6c-0.6-4.1-1.7-7.6-3.1-10.6c-1.4-2.9-3.2-5.2-5.5-6.9
		c-2.2-1.7-5-2.5-8.2-2.5c-3.2,0-6,0.8-8.2,2.5c-2.2,1.7-4.1,4-5.5,6.9c-1.4,2.9-2.5,6.5-3.1,10.6c-0.7,4.1-1,8.6-1,13.6
		s0.3,9.5,1,13.6c0.7,4.1,1.7,7.6,3.1,10.5c1.4,2.9,3.2,5.2,5.5,6.8c2.2,1.6,5,2.4,8.2,2.4c3.2,0,6-0.8,8.2-2.4
		c2.2-1.6,4.1-3.9,5.5-6.8c1.4-2.9,2.4-6.4,3.1-10.5C486.9,1094.2,487.2,1089.7,487.2,1084.8z"/>
	<path d="M524.3,1147.4h-10.1v-82.1c2.2-0.9,4.7-1.7,7.5-2.3c2.8-0.6,5.6-0.9,8.6-0.9c4.3,0,8,0.7,11.1,2.2c3.1,1.5,5.6,3.6,7.5,6.4
		c1.9,2.8,3.3,6.2,4.2,10.3c0.9,4.1,1.4,8.7,1.4,13.9c0,10.5-1.7,18.4-5,23.9c-3.3,5.5-8.8,8.3-16.3,8.3c-1.8,0-3.4-0.2-4.8-0.5
		c-1.4-0.4-2.8-0.8-4-1.5V1147.4z M524.3,1116.3c2.3,1.3,4.7,1.9,7.3,1.9c2,0,3.7-0.4,5.2-1.2c1.5-0.8,2.8-2.1,3.8-3.9
		c1.1-1.8,1.9-4.2,2.4-7.2c0.5-3,0.8-6.7,0.8-11.1c0-8.5-1.1-14.6-3.2-18.2c-2.2-3.7-5.6-5.5-10.3-5.5c-0.9,0-1.8,0.1-2.8,0.2
		c-1,0.1-2.1,0.3-3.2,0.6V1116.3z"/>
	<path d="M576.3,1097.6c0.1,3,0.4,5.7,0.8,8.2c0.5,2.5,1.2,4.6,2.3,6.5c1.1,1.8,2.5,3.3,4.2,4.3c1.8,1,4,1.5,6.8,1.5
		c2.3,0,4.4-0.3,6.3-1c1.9-0.7,3.3-1.2,4.2-1.7l1.9,8.1c-1,0.7-2.7,1.5-5.1,2.3c-2.4,0.8-5.2,1.2-8.6,1.2c-4.3,0-8-0.8-10.9-2.4
		c-2.9-1.6-5.3-3.8-7.2-6.6c-1.8-2.8-3.2-6.2-4-10.1c-0.8-3.9-1.2-8.3-1.2-13c0-11.4,1.9-19.7,5.7-25c3.8-5.3,8.8-7.9,15-7.9
		c7,0,12,2.6,14.9,7.9c2.9,5.3,4.4,12.7,4.4,22.2c0,0.9,0,1.8,0,2.7c0,0.9,0,1.8-0.1,2.8H576.3z M586.6,1070.7
		c-3.4,0-5.8,1.7-7.4,5.1c-1.5,3.4-2.5,7.9-2.8,13.6h18.8c0-5.7-0.6-10.3-1.8-13.6C592.3,1072.4,590,1070.7,586.6,1070.7z"/>
	<path d="M620.8,1065.4c2.9-0.9,6.1-1.6,9.4-2.2c3.4-0.6,6.5-0.9,9.3-0.9c3.1,0,5.9,0.4,8.4,1.2c2.5,0.8,4.7,2.2,6.4,4.2
		c1.8,2,3.1,4.6,4.1,8c1,3.3,1.5,7.5,1.5,12.4v37.4h-10.1V1089c0-6.1-0.8-10.6-2.4-13.4c-1.6-2.8-4.5-4.2-8.8-4.2
		c-2.3,0-4.8,0.4-7.7,1.2v53.1h-10.1V1065.4z"/>
	<path d="M752.9,1084.6c0,7.6-0.8,14.1-2.4,19.4c-1.6,5.3-3.9,9.6-7,12.9c-3,3.3-6.7,5.7-11,7.2c-4.3,1.5-9.1,2.2-14.3,2.2
		c-5.3,0-11-0.7-17-2.1V1045c3-0.6,5.9-1.1,8.7-1.5c2.8-0.4,5.5-0.6,8.1-0.6c5.3,0,10.2,0.7,14.5,2.2c4.3,1.5,7.9,3.9,11,7.2
		c3,3.3,5.3,7.6,7,12.9C752.1,1070.6,752.9,1077,752.9,1084.6z M741.6,1084.6c0-5.8-0.4-10.8-1.3-14.9c-0.9-4.1-2.2-7.4-4-10
		c-1.8-2.6-4.2-4.5-7.1-5.7s-6.5-1.8-10.6-1.8c-1.1,0-2.2,0-3.3,0.1c-1.1,0.1-2.2,0.2-3.4,0.4v63.7c1.2,0.2,2.3,0.3,3.4,0.4
		c1.1,0.1,2.2,0.1,3.2,0.1c4.2,0,7.7-0.6,10.6-1.8c2.9-1.2,5.3-3,7.1-5.6c1.8-2.6,3.2-5.9,4.1-10
		C741.2,1095.5,741.6,1090.5,741.6,1084.6z"/>
	<path d="M769,1064.9c2-0.9,4.2-1.6,6.5-2.1c2.3-0.5,4.8-0.8,7.4-0.8c5.5,0,10,1.7,13.4,5.1c3.5,3.4,5.2,8.7,5.2,16v41
		c-2.8,0.8-5.7,1.4-8.7,1.9c-2.9,0.5-5.8,0.7-8.7,0.7s-5.5-0.4-8-1.1c-2.5-0.7-4.6-1.8-6.5-3.4c-1.8-1.6-3.3-3.6-4.4-6
		c-1.1-2.4-1.7-5.3-1.7-8.8c0-3.2,0.5-6,1.5-8.4c1-2.4,2.3-4.4,4.1-6c1.7-1.6,3.8-2.8,6.1-3.7c2.4-0.8,4.9-1.2,7.7-1.2
		c2.6,0,5.5,0.3,8.6,0.9v-5.7c0-4.6-0.9-7.7-2.7-9.6c-1.8-1.8-4.3-2.7-7.6-2.7c-1.8,0-3.5,0.2-5.1,0.5c-1.6,0.4-3.3,0.9-5.1,1.7
		L769,1064.9z M773.8,1107.5c0,3.6,0.9,6.3,2.8,8c1.9,1.7,4.6,2.6,8,2.6c2.1,0,4.4-0.3,7-0.8v-19.7c-2.4-0.6-4.7-0.9-7-0.9
		c-1.5,0-2.9,0.2-4.2,0.5c-1.3,0.4-2.5,0.9-3.5,1.8c-1,0.8-1.8,1.9-2.3,3.3C774.1,1103.7,773.8,1105.4,773.8,1107.5z"/>
	<path d="M828.7,1063.7h15.6v8.7h-15.6v34.1c0,4.2,0.8,7.2,2.3,8.9c1.5,1.7,3.6,2.5,6.2,2.5c1.3,0,2.6-0.2,3.8-0.6
		c1.2-0.4,2.3-0.9,3.1-1.4l2,8.1c-3.2,1.9-6.6,2.8-10.3,2.8c-5.8,0-10.2-1.6-13-4.9c-2.9-3.3-4.3-8.7-4.3-16.2V1047l10.1-1.8V1063.7
		z"/>
	<path d="M858,1064.9c2-0.9,4.2-1.6,6.5-2.1c2.3-0.5,4.8-0.8,7.4-0.8c5.5,0,10,1.7,13.4,5.1c3.5,3.4,5.2,8.7,5.2,16v41
		c-2.8,0.8-5.7,1.4-8.7,1.9c-2.9,0.5-5.8,0.7-8.7,0.7s-5.5-0.4-8-1.1c-2.5-0.7-4.6-1.8-6.5-3.4c-1.8-1.6-3.3-3.6-4.4-6
		c-1.1-2.4-1.7-5.3-1.7-8.8c0-3.2,0.5-6,1.5-8.4c1-2.4,2.3-4.4,4.1-6c1.7-1.6,3.8-2.8,6.1-3.7c2.4-0.8,4.9-1.2,7.7-1.2
		c2.6,0,5.5,0.3,8.6,0.9v-5.7c0-4.6-0.9-7.7-2.7-9.6c-1.8-1.8-4.3-2.7-7.6-2.7c-1.8,0-3.5,0.2-5.1,0.5c-1.6,0.4-3.3,0.9-5.1,1.7
		L858,1064.9z M862.9,1107.5c0,3.6,0.9,6.3,2.8,8c1.9,1.7,4.6,2.6,8,2.6c2.1,0,4.4-0.3,7-0.8v-19.7c-2.4-0.6-4.7-0.9-7-0.9
		c-1.5,0-2.9,0.2-4.2,0.5c-1.3,0.4-2.5,0.9-3.5,1.8c-1,0.8-1.8,1.9-2.3,3.3C863.1,1103.7,862.9,1105.4,862.9,1107.5z"/>
	<path d="M928.6,1084.6c0-7.7,0.7-14.3,2.1-19.7c1.4-5.4,3.4-9.8,6.1-13.3c2.6-3.4,5.8-5.9,9.6-7.4c3.7-1.5,7.9-2.3,12.6-2.3
		c3.5,0,6.8,0.5,9.7,1.5c2.9,1,5.3,2.1,7.1,3.4l-3.3,8.8c-1.8-1.3-3.8-2.3-5.9-3.1c-2.1-0.8-4.6-1.2-7.3-1.2
		c-6.8,0-11.8,2.8-14.7,8.3c-3,5.5-4.5,13.9-4.5,25.1c0,6,0.5,11.1,1.4,15.3c0.9,4.2,2.2,7.7,3.8,10.4c1.7,2.7,3.7,4.6,6,5.9
		c2.4,1.3,5,1.9,7.9,1.9c2.4,0,4.5-0.3,6.3-0.8v-32h10.6v38.5c-2.1,1-4.8,1.9-7.9,2.6c-3.1,0.7-6.4,1.1-9.9,1.1
		c-4.2,0-8.2-0.8-11.8-2.5c-3.6-1.7-6.7-4.3-9.4-7.8c-2.6-3.5-4.7-7.9-6.1-13.3C929.3,1098.4,928.6,1092,928.6,1084.6z"/>
	<path d="M1033,1094.7c0,4.9-0.4,9.3-1.3,13.3c-0.9,4-2.2,7.4-4,10.2s-4,5-6.7,6.6c-2.7,1.6-5.9,2.4-9.6,2.4c-3.7,0-6.9-0.8-9.7-2.4
		c-2.8-1.6-5-3.8-6.8-6.6s-3.1-6.2-4-10.2c-0.9-4-1.3-8.4-1.3-13.3c0-4.8,0.4-9.2,1.3-13.2c0.9-4,2.2-7.5,4-10.3
		c1.8-2.9,4-5.1,6.8-6.7c2.8-1.6,6-2.4,9.7-2.4c3.7,0,6.9,0.8,9.6,2.4c2.7,1.6,5,3.8,6.7,6.7c1.8,2.9,3.1,6.3,4,10.3
		C1032.5,1085.5,1033,1089.9,1033,1094.7z M1022.3,1094.7c0-3.5-0.2-6.6-0.6-9.5c-0.4-2.9-1-5.3-1.9-7.4c-0.9-2.1-2-3.7-3.4-4.8
		c-1.4-1.1-3.1-1.7-5.1-1.7c-2,0-3.8,0.6-5.1,1.7c-1.4,1.1-2.5,2.8-3.4,4.8c-0.9,2.1-1.6,4.6-1.9,7.4c-0.4,2.9-0.6,6-0.6,9.5
		c0,3.5,0.2,6.6,0.6,9.5c0.4,2.9,1,5.3,1.9,7.4c0.9,2,2,3.6,3.4,4.8c1.4,1.1,3.1,1.7,5.1,1.7c2,0,3.7-0.6,5.1-1.7
		c1.4-1.1,2.6-2.7,3.4-4.8c0.9-2,1.5-4.5,1.9-7.4C1022.1,1101.3,1022.3,1098.1,1022.3,1094.7z"/>
	<path d="M1061.6,1113.7c0.9-3.1,1.9-6.8,3-11.1c1.1-4.2,2.1-8.6,3.1-13.2c1-4.5,2-9,2.9-13.5c0.9-4.5,1.7-8.6,2.3-12.3h10.1
		c-1,5.2-2.2,10.7-3.6,16.4c-1.4,5.7-2.8,11.4-4.3,16.9c-1.5,5.5-2.9,10.8-4.4,15.7c-1.5,5-2.9,9.2-4.1,12.9h-10.5
		c-1.3-3.6-2.6-7.9-4.1-12.9c-1.5-5-3-10.2-4.4-15.7s-2.9-11.2-4.2-16.9c-1.4-5.7-2.6-11.2-3.6-16.4h10.7c0.6,3.7,1.4,7.8,2.3,12.3
		c0.9,4.5,1.8,9,2.8,13.5c1,4.5,2,8.9,3,13.2C1059.7,1106.8,1060.7,1110.5,1061.6,1113.7z"/>
</g>
</svg>
